<svg xmlns="http://www.w3.org/2000/svg" version="1.1" xmlns:xlink="http://www.w3.org/1999/xlink" width="911.49" height="911.49"><svg id="SvgjsSvg1039" data-name="Layer 2" xmlns="http://www.w3.org/2000/svg" viewBox="0 0 911.49 911.49">
  <defs>
    <style>
      .cls-1 {
        fill: #00bfff;
      }

      .cls-2 {
        fill: #1a1f2e;
      }
    </style>
  </defs>
  <g id="SvgjsG1038" data-name="Layer 1">
    <g>
      <rect class="cls-2" width="911.49" height="911.49" rx="143.23" ry="143.23"></rect>
      <g>
        <path class="cls-1" d="M694.15,340.79l43.95-1.7-44.81,87.87-46.52-82.8-27.05,81.13-8.07-51.17,52.01-98.59,28.77,12.8c2.27-2.2-19.33-25.88-18.31-32.56,1.67-10.93,18.99-31.34,21.72-43.51,3.52-2.55,18.64,19.67,21.96,16.89l-10.93-39.06c15.33-29.67,27.07-61.37,42.24-91.09,1-1.95,1.58-4.68,4.18-5.1l4.81,206.84-63.96,40.03Z"></path>
        <path class="cls-1" d="M161.52,93.92l43.61,95.95-11.44,40.99,21.12-18.57,24.25,45.08-20.02,30.96,28.78-12.79,51.57,95.59c1.73,17.81-4.45,36.31-5.98,54.16l-29.57-87.93-.97,12.45-42.09,76.16-3.49.22-42.24-86.27c-.28-4.19.24-1.83,1.74-1.76,13.47.66,27.04,3.87,40.54,3.45l-64.07-40.84,4.9-204.36,3.36-2.5Z"></path>
        <path class="cls-1" d="M367.39,670.91l19.03,43.51-21.97,2.54c7.04,6.53,26.47,11.86,31.9,18.83,1.65,2.11,9.67,21.61,8.67,22.6l-11.82,1.68,18.67,9.67,38.79,86.72-142.44-125.53-14.78-82.42,73.95,22.4Z"></path>
        <path class="cls-1" d="M618.05,648.5l-15.13,83.76c-46.29,37.8-88.54,81.05-134.49,119.13-1.9,1.58-2.73,4.1-5.91,3.37l38.79-86.71,16.99-7.99c.94-7.87-8.92,2.02-11.79-4.19,4.4-5.15,4.99-13.1,8.65-18.37,6.62-9.49,25.29-13.7,33.57-22.23l-21.97-.85c-2.34-2.28,6.19-14.15,7.3-16.9.66-1.63-.24-3.98.73-6.18,3.06-6.92,6.5-17.86,13-20.96l70.25-21.88Z"></path>
        <path class="cls-1" d="M303.57,506.48c-7.27,5.87-23.53,15.67-32.89,15.25-33.85-11.99-85.91-13.9-117.42-28.12-3.54-1.6-45.24-40.56-48.24-44.75-7.96-11.11-12.37-31.01-17.89-43.84-3.15-.39-1.25,3.4-.92,5.14.91,4.84,9.24,32.28,7.72,33.73-16.63,2.55-34.73,2.07-51.11,5.54-11.55,2.45-23.17,9.6-35.12,10.53l76.92-57.78,112.89,79.3,106.07,24.99Z"></path>
        <path class="cls-1" d="M350.9,548.77c2.52,2.93-.5,2.83-2.45,3.4-33.16,9.73-69.5,15.15-102.93,24.72-20.13-5.78-45.61-3.78-62.02-17.14-2.6-2.12-16.2-18.19-18.58-16.07l20.06,25.9-39.24,52.14c-.96,15.58,1.29,32.06,2.34,47.84.12,1.81,1.17,7.98-1.74,7.66l-15.18-42.93,32.31-92.08,79.95,6.41c11.79-1.33,30.37-14.99,40.64-15.99,5.86-.57,45.96,4.46,52.1,6.33.85.26,14.16,9.13,14.74,9.8Z"></path>
        <path class="cls-1" d="M498.01,547.04l12.61-55.87c13.14-16.95,27.9-28.42,26.29-52.34l18.41,14.72-6.56,14.02,10.97-11.81,27.77,24.72-122.47,112.2c-1.93-.59-.56-3.85-.36-5.43,1.28-10.22,6.8-46.61,10.11-54.14,1.31-2.99,14.96-16.62,18.14-19.06,1.7-1.31,2.13-3.26,5.08-2.53v35.51Z"></path>
        <path class="cls-1" d="M411.8,547.03l4.2-35.49,21.28,22.68,9.17,58.46-122.46-110.98c-.37-2.24,24.25-23.52,26.41-24.1,6.44-1.72,9.97,11.44,15.71,13.35l-10-17.54,17.64-14.57c4.44,7.4,1.98,17.65,5.14,25.27,3.29,7.93,18.59,19.29,22.88,27.85l10.03,55.08Z"></path>
        <path class="cls-1" d="M826.02,406.71c.64-.83,2.2-1.1,1.76-3.28l3.34.71,72.68,56.66c-27.93-11.63-56.03-15.63-86.23-16.9-1.41-1.29,8.2-31.12,8.45-37.19-7.84,10.14-10.21,29.23-17.86,40.47-2.22,3.26-45.23,44.93-48.2,46.49l-122.52,29.5-29.52-13.34c-.49-4.37,0-2.68,2.46-3.4,31.2-9.17,73.01-13.91,101.89-24.94,26.58-10.15,78.96-57.04,107.82-74.79,1.15-.71,5.55-3.73,5.92-3.36.02,1.12.06,2.26.02,3.38Z"></path>
        <path class="cls-1" d="M662.53,626.01l53.59,36.86-32.94,4.33c-43.31-15.34-75.27-47.36-104.88-81.25-2.73-3.13-5-6.89-7.58-10.15,6.81-.66,14.11-5.37,20.89-5,3.55.19,46.97,12.2,49.1,13.61l21.82,41.59Z"></path>
        <path class="cls-1" d="M195.36,663.69c.21-1.84,2.2-2.96,3.53-4.06,12.07-10.08,40.96-23.28,49.62-33.23,6.6-7.58,15.35-36.66,21.33-41.23,22.82-5.17,48.42-21.7,70.9-8.54l-37.12,40.63c-19.35,23.67-45.74,35.76-72.33,49.53l-35.92-3.1Z"></path>
        <path class="cls-1" d="M749.54,544.08l30.78,90.21-15.19,42.93c-3.33.34-.98-3.29-.83-5.05,1.38-17.04,4.1-33.96,2.13-51.16l-38.45-51.09,16.86-24.56c-1.09-1.16-20.44,18.85-24.14,20.65-5.96,2.89-43.44,9.62-51.04,9.87l-109.11-23.76c-1.03-3.93.94-2.83,2.15-3.87,1.83-1.57,11.31-8.93,12.58-9.29,5.63-1.61,46.82-6.87,52.42-6.6,10.8.54,29.44,15.08,40.6,16.02,20.07,1.68,52.28-6.01,74.04-6.41,1.91-.04,6.01.74,7.18,2.12Z"></path>
        <path class="cls-1" d="M403.63,671.84c-1.27-2.17,6.37-45.55,8.02-49.69s6.29-7.88,9.39-10.9c1.5-1.46,12.01-10.66,12.77-11.04,4.56-2.29,17.26,10.93,22.77,12.23l21.75-12.73c1.53.3,21.3,20.1,22.14,21.82,1.93,3.98,7.72,39.4,7.77,44.82.02,2.03.2,3.99-.91,5.83l-49.41,36.94-6.14-1.7-48.14-35.57ZM457.4,704.27l38.65-78.37-19.15-19.21-20.3,11.25-21.29-10.98-19.68,18.68c14.06,23.11,23.64,54.23,38.02,76.47,1.06,1.63-.18,3.04,3.75,2.16ZM440.51,689.07l-25.33-50.71-4.33,28.71,29.66,22ZM498,640.04c-3.95-.85-2.72.51-3.78,2.17-8.2,12.77-14.66,31.3-21.56,45.15l27.97-20.34-2.62-26.98Z"></path>
        <path class="cls-1" d="M638.38,295.12c-.19-4.29-4.98-6.46-6.14-10.1-2.9-9.11,22.63-40.39,18.01-53.38l-22.03-176.6,41.48,183.5c-.23,2.85-22.72,45.94-25.95,51-.83,1.3-4.15,6.43-5.37,5.59Z"></path>
        <path class="cls-1" d="M269.77,295.12c-6.66-20.5-21.91-38.78-27.14-59.93l40.63-180.15-22.1,180.06c-.71,13.71,18.12,35.79,18.77,47.51.2,3.63-7.96,14.56-10.16,12.52Z"></path>
        <path class="cls-1" d="M391.47,224.1l-15.18-6.76-3.13,20.74,32.67,30.01,11.86,33.78c1.36-1.8,4.9-3.68,5.23-5.82,1.06-6.85-6.69-28.59-7.58-37.46-1.2-11.88,1.28-23.09,1.97-34.87l4.6-16.51c-.75,3.74,1.39,7.64,1.36,10.99-.06,9.99-3.32,24.24-3.1,33.73.21,9.29,11.62,43.34,10.02,48.86l-65.75,51.81,52.12-49.85-14.9-32.16c-5.36-7.09-30.24-23.46-33.03-29.63-2.77-6.11,5.45-22.2,3.53-25.31l-31-13.92-7.15-55.38,46.45,18.63,11.01,59.14ZM372.89,170.02l-27.04-8.47,1.7,30.43,25.34-21.96ZM374.57,176.77c-2.19-2.54-20.93,19.25-23.63,21.13.02,1.96,27.31,14.06,28.7,12.67l-5.07-33.8Z"></path>
        <path class="cls-1" d="M648.47,350.91l21.98,62.46-45.61,33.91c-.82-5.03-3.72-8.41-3.09-13.92,2.71-23.66,20.17-55.06,23.33-79.97l3.39-2.49Z"></path>
        <path class="cls-1" d="M286.64,447.28l-43.75-34.98,22.64-61.38,24.14,79.05c1.81,6.18-1.91,11.5-3.03,17.31Z"></path>
        <path class="cls-1" d="M494.63,300.19c5.13-28.77,22.94-42.57,43.64-60.34l-1.37-22.51-15.19,5.07,8.71-57.2,47.05-18.88-5.88,54.13-31.11,13.69,2.94,27.41c-1.19,3.46-27.36,22.48-31.9,29.02-4.83,6.96-7.99,18.29-12.69,26.27-1.3,2.2.31,4.24-4.21,3.34,13.84,17.25,32.82,29.83,47.33,46.5-1.8,2.84-3.71-.7-5.04-1.72-18.71-14.35-36.47-29.97-54.9-44.69,4.07-23.77,9.75-44.08,9.21-68.55-.12-5.64-4.27-12.12.86-17.79,1.84.06,6.06,33.54,6.05,36.36-.05,10.39-10.7,40.04-7.75,46.54.87,1.9,3.51,2.44,4.23,3.35ZM565.64,161.55l-27.02,9.3c8.83,5.95,16.67,17.28,27.02,19.44v-28.74ZM531.83,210.56c2.02,1.53,30.46-11.01,30.4-12.66l-22.8-21.13-7.6,33.79Z"></path>
        <path class="cls-1" d="M227.41,672.23l2.56,59.16,34.71,43.89-37.1-22.91c-2.82-1.64-3.52-4.36-4.79-7.04-11.3-23.83-17.27-55.1-27.42-79.92l32.05,6.82Z"></path>
        <polygon class="cls-1" points="716.11 665.41 687.45 750.42 646.8 775.28 681.56 733.13 684.16 672.32 716.11 665.41"></polygon>
        <path class="cls-1" d="M569,440.52c-9.82-6.29-19.99-12.12-29.92-18.25-1.3-.81-2.87.56-2.17-2.87l55.77-43.13-23.68,64.25Z"></path>
        <path class="cls-1" d="M374.58,421.9c-6.22.1-28.48,19.48-32.1,16.92l-23.68-64.24,54.13,43.07,1.64,4.25Z"></path>
        <path class="cls-1" d="M492.94,384.73l-36.31,32.1c-5.19.14-31.48-26.33-36.4-32.1h72.7Z"></path>
        <polygon class="cls-1" points="450.39 318.52 354.29 366.11 441.38 308.65 443.92 229.18 448.96 279.07 450.39 318.52"></polygon>
        <path class="cls-1" d="M471.31,309.99l84.19,54.43-93.86-47.3,5.92-81.17c2.86,24.43,1.76,49.4,3.75,74.05Z"></path>
        <polygon class="cls-1" points="599.44 462.5 571.14 441.4 596.93 384.74 599.44 462.5"></polygon>
        <polygon class="cls-1" points="340.69 443.77 312.04 462.5 315.42 384.74 340.69 443.77"></polygon>
        <path class="cls-1" d="M556.85,581.21c4.32,10.12,21.76,17.99,22.28,29.44.4,8.92-16.22,5.61-22.88,8.44l-19.36-34.83,19.96-3.04Z"></path>
        <path class="cls-1" d="M374.59,584.25l-18.53,34.66-23.69-4.3c-4.93-5.65,19.24-30.9,23.66-32.93,5.82-2.67,12.09,3.62,18.55,2.57Z"></path>
        <path class="cls-1" d="M582.54,269.77l4.97,31.98-28.61,8.59-6.76-32.12c-2.33,12.47-17.15,29.49-19.54,40.52-1.13,5.22,3.24,10.4,1.78,15.26-16.24-16.19,9.69-43.32,15.18-60.89l32.98-3.34ZM575.78,274.84l-20.28,1.7,6.78,25.33,13.5-27.03ZM584.2,298.42l-4.18-21.9-12.68,25.35,16.86-3.45Z"></path>
        <path class="cls-1" d="M362.47,271.73c2.58,12.08,20.49,34.54,21.91,44.89.59,4.29-2.06,14.26-5.58,17.38-.92-5.48,1.7-9.78.48-15.66-2.38-11.53-15.34-27.83-18.25-40.11l-6.75,32.12-28.54-9.53,3.19-31.06,33.55,1.98ZM357.68,276.53l-21.98-1.69,13.55,25.34c4.4.37,2.81.22,3.3-2.56,1.29-7.21,1.4-14.47,5.13-21.09ZM347.53,303.55l-15.19-25.33-4.36,20.32,19.55,5.01Z"></path>
        <path class="cls-1" d="M454.04,421.94c1.4,1.25-11.62,27.9-11.81,33.15-.23,6.08,8.53,11.43,7.6,17.55-12.81-14.01-27.08-28.84-32.98-47.32l37.19-3.39Z"></path>
        <path class="cls-1" d="M494.58,425.37c3.34,4.94-26.88,44.22-33.75,48.97l10.1-17.7-13.5-34.69,37.15,3.43Z"></path>
        <polygon class="cls-1" points="547.04 99 497.65 151.89 486.19 202.12 483.72 149.63 547.04 99"></polygon>
        <polygon class="cls-1" points="428.34 148.35 426.99 172.52 423.63 193.66 414.94 152.47 361.06 95.62 428.34 148.35"></polygon>
        <polygon class="cls-1" points="547.04 655.24 552.44 635.3 580.84 628.2 577.52 647.69 547.04 655.24"></polygon>
        <path class="cls-1" d="M359,635.33c.97.97,4.89,18.33,4.6,21.6l-28.88-10.01-2.04-3.03-2.06-15.68,28.37,7.12Z"></path>
        <path class="cls-1" d="M416.85,388.11c10.69,10.13,23,18.72,32.12,30.42l-32.12,3.4v-33.82Z"></path>
        <path class="cls-1" d="M482.79,381.35h-51.57c-4.34,0-.92-8.86-.85-11.01.2-6.47-.13-12.97.02-19.42,2.38.19,2.97,7.62,3.15,9.5.56,5.83-.64,11.91,1.05,17.53,11.9-8.59,29.98-5.74,43.12-1.69l2.55-27.06,2.54,32.14Z"></path>
        <polygon class="cls-1" points="494.63 420.23 462.5 418.53 494.63 388.11 494.63 420.23"></polygon>
        <path class="cls-1" d="M386.42,579.15l-29.62-8.4-16.02-6.77c5.4-.31,16.05-5.72,20.73-4.76s20.39,15.71,24.91,19.94Z"></path>
        <path class="cls-1" d="M570.7,563.97l-34.15,12.31-8.11,1.18c3.43-4.35,16.99-17.17,21.58-18.27,5.66-1.35,14.86,4.01,20.68,4.78Z"></path>
        <path class="cls-1" d="M415.16,437.13c-3.17.74-4.02-1.77-5.92-3.36-13.31-11.1-28.59-23.28-39.47-36.05l3.12-5.41,42.28,44.82Z"></path>
        <path class="cls-1" d="M540.26,391.5l3.01,7.63-1.13,1.7-45.81,36.3c13.37-13.97,26.15-28.51,39.19-42.8,1.5-1.64,1.53-3.62,4.75-2.83Z"></path>
        <path class="cls-1" d="M727.96,455.76c-12.6,16.5-33.67,17.36-52.4,21.95l33.86-15.99,18.55-5.95Z"></path>
        <path class="cls-1" d="M748.24,317.11c-2.09,17.77-26.96,15.46-40.56,20.26l40.56-20.26Z"></path>
        <path class="cls-1" d="M203.8,335.72c.4,3.14-3.41,1.26-5.14.92-4.92-.96-29.47-7.28-31.11-9.48l-6-11.73,42.26,20.29Z"></path>
        <path class="cls-1" d="M743.17,508.17c-8.77,16.48-31.35,8.38-47.33,11.8l47.33-11.8Z"></path>
        <path class="cls-1" d="M340.76,308.65l-1.43,13.28c6.51,3.31,22.19,10.17,24.38,17.05,1.07,3.35,1.26,4.62-1.8,6.83-4.9-12.59-17.27-15.74-27.02-23.53-.44-.97.77-15.81,5.88-13.62Z"></path>
        <path class="cls-1" d="M575.78,308.64l1.38,14.9-19.1,12.17-9.3,10.12c-1.3-13.14,15.19-19.11,25.11-23.9,2.56-4.05-5.64-14.51,1.93-13.3Z"></path>
        <path class="cls-1" d="M645.12,479.4l18.57-17.76,8.46-5.89c-4.67,13.72-11.86,22.11-27.03,23.65Z"></path>
        <path class="cls-1" d="M266.37,479.4c-14.45-2.65-22.84-11.53-27.04-25.34l27.04,25.34Z"></path>
      </g>
    </g>
  </g>
</svg><style>@media (prefers-color-scheme: light) { :root { filter: none; } }
@media (prefers-color-scheme: dark) { :root { filter: none; } }
</style></svg>