<?xml version="1.0" encoding="UTF-8"?>
<!-- The width and height have been changed to a more reasonable 150px -->
<svg id="Loader_Wrapper" xmlns="http://www.w3.org/2000/svg" version="1.1" width="150" height="150"
     viewBox="0 0 911.49 911.49">
    <defs>
        <style>
            /* --- Styles for Loader Background  Rings --- */
            .bg-circle {
            fill: #1a1f2e;
            }

            .rotating-circle {
            fill: none;
            stroke: #00bfff;
            stroke-width: 15;
            stroke-linecap: round;
            transform-origin: 455.745px 455.745px; /* Explicit center for rotation */
            }

            #circle-cw {
            animation: rotate-cw 12s linear infinite;
            }

            #circle-ccw {
            animation: rotate-ccw 9s linear infinite;
            }

            @keyframes rotate-cw {
            from { transform: rotate(0deg); }
            to { transform: rotate(360deg); }
            }

            @keyframes rotate-ccw {
            from { transform: rotate(0deg); }
            to { transform: rotate(-360deg); }
            }

            /* --- Styles for Drawing Animation (Your SVG) --- */
            .cls-1 {
            fill: none;
            stroke: #00bfff;
            stroke-width: 2.5;
            stroke-dasharray: 3000;
            stroke-dashoffset: 3000;
            animation: draw 3s ease-in-out infinite;
            }

            @keyframes draw {
            0% {
            stroke-dashoffset: 3000;
            }
            50% {
            stroke-dashoffset: 0;
            }
            100% {
            stroke-dashoffset: 3000;
            }
            }

            /* Staggering the animation start times for a more dynamic effect */
            .logo-art > *:nth-child(2n) { animation-delay: -0.2s; }
            .logo-art > *:nth-child(3n) { animation-delay: -0.4s; }
            .logo-art > *:nth-child(4n) { animation-delay: -0.6s; }
            .logo-art > *:nth-child(5n) { animation-delay: -0.8s; }
        </style>
    </defs>

    <!-- Background Circle -->
    <circle class="bg-circle" cx="455.745" cy="455.745" r="380"></circle>

    <!-- Centering and Scaling group for your new SVG artwork -->
    <g id="Artwork_Container" transform="translate(135.855, 169.6575) scale(0.75)">
        <g class="logo-art">
            <path class="cls-1" d="M653.47,272.02l41.83-1.61-42.65,83.65-44.28-78.82-25.75,77.23-7.68-48.71,49.51-93.85,27.39,12.19c2.17-2.1-18.4-24.63-17.43-30.99,1.59-10.4,18.08-29.83,20.68-41.42,3.35-2.42,17.74,18.73,20.9,16.08l-10.41-37.18c14.59-28.25,25.77-58.42,40.21-86.71.95-1.86,1.5-4.45,3.98-4.85l4.58,196.9-60.88,38.11Z"/>
            <path class="cls-1" d="M146.44,37.01l41.51,91.34-10.89,39.02,20.11-17.67,23.08,42.91-19.06,29.47,27.4-12.17,49.1,91c1.64,16.96-4.23,34.57-5.69,51.56l-28.15-83.7-.92,11.85-40.06,72.5-3.33.21-40.21-82.13c-.27-3.99.23-1.75,1.65-1.68,12.82.63,25.74,3.68,38.59,3.28l-60.99-38.88,4.66-194.54,3.2-2.38Z"/>
            <path class="cls-1" d="M342.41,586.27l18.12,41.42-20.92,2.42c6.7,6.22,25.2,11.29,30.36,17.92,1.57,2.01,9.21,20.58,8.25,21.51l-11.25,1.6,17.77,9.21,36.93,82.55-135.6-119.5-14.07-78.46,70.4,21.33Z"/>
            <path class="cls-1" d="M581.02,564.94l-14.41,79.73c-44.07,35.98-84.29,77.15-128.03,113.4-1.81,1.5-2.6,3.9-5.63,3.21l36.93-82.54,16.17-7.61c.89-7.49-8.49,1.92-11.22-3.99,4.19-4.91,4.75-12.47,8.24-17.49,6.3-9.04,24.08-13.04,31.95-21.16l-20.91-.8c-2.23-2.17,5.89-13.47,6.95-16.09.63-1.55-.23-3.79.69-5.88,2.91-6.59,6.18-17,12.38-19.96l66.87-20.83Z"/>
            <path class="cls-1" d="M281.66,429.75c-6.92,5.59-22.4,14.91-31.31,14.52-32.23-11.42-81.78-13.23-111.78-26.77-3.37-1.52-43.07-38.61-45.93-42.6-7.57-10.57-11.78-29.52-17.03-41.73-3-.37-1.19,3.23-.88,4.9.86,4.61,8.79,30.73,7.35,32.11-15.83,2.43-33.06,1.97-48.66,5.28-10.99,2.33-22.06,9.14-33.43,10.02l73.23-55.01,107.46,75.49,100.97,23.78Z"/>
            <path class="cls-1" d="M326.71,470c2.39,2.79-.48,2.69-2.33,3.23-31.57,9.26-66.16,14.42-97.98,23.53-19.16-5.5-43.42-3.6-59.04-16.31-2.48-2.02-15.42-17.31-17.68-15.3l19.09,24.65-37.35,49.64c-.92,14.83,1.23,30.51,2.23,45.55.12,1.73,1.11,7.6-1.66,7.29l-14.45-40.87,30.75-87.66,76.1,6.1c11.22-1.27,28.91-14.27,38.69-15.22,5.58-.54,43.75,4.25,49.59,6.03.81.25,13.48,8.69,14.03,9.33Z"/>
            <path class="cls-1" d="M466.75,468.36l12-53.18c12.5-16.13,26.56-27.05,25.02-49.82l17.52,14.01-6.25,13.35,10.45-11.24,26.44,23.53-116.58,106.8c-1.84-.57-.53-3.67-.34-5.17,1.22-9.73,6.48-44.37,9.63-51.54,1.25-2.84,14.24-15.82,17.27-18.14,1.62-1.24,2.03-3.1,4.84-2.4v33.8Z"/>
            <path class="cls-1" d="M384.68,468.35l4-33.78,20.25,21.59,8.73,55.65-116.58-105.64c-.36-2.13,23.08-22.39,25.14-22.94,6.13-1.63,9.49,10.89,14.96,12.71l-9.52-16.7,16.79-13.87c4.22,7.04,1.88,16.8,4.9,24.05s17.69,18.36,21.78,26.51l9.55,52.43Z"/>
            <path class="cls-1" d="M779,334.77c.61-.79,2.09-1.05,1.68-3.13l3.18.67,69.18,53.94c-26.58-11.07-53.33-14.88-82.08-16.09-1.34-1.22,7.81-29.62,8.04-35.4-7.47,9.65-9.72,27.82-17,38.52-2.11,3.1-43.06,42.77-45.88,44.25l-116.64,28.08-28.1-12.7c-.47-4.16,0-2.55,2.34-3.24,29.7-8.73,69.51-13.24,97-23.74,25.3-9.67,75.16-54.3,102.64-71.19,1.09-.67,5.28-3.55,5.63-3.2.02,1.06.06,2.15.02,3.22Z"/>
            <path class="cls-1" d="M623.36,543.53l51.01,35.09-31.35,4.13c-41.23-14.6-71.66-45.08-99.84-77.34-2.6-2.98-4.76-6.56-7.22-9.66,6.48-.63,13.43-5.11,19.89-4.76,3.38.18,44.71,11.62,46.74,12.95l20.77,39.59Z"/>
            <path class="cls-1" d="M178.65,579.4c.2-1.75,2.1-2.82,3.36-3.87,11.49-9.59,38.99-22.16,47.23-31.63,6.28-7.21,14.61-34.9,20.31-39.24,21.73-4.92,46.09-20.66,67.49-8.13l-35.34,38.67c-18.42,22.53-43.55,34.04-68.86,47.15l-34.19-2.95Z"/>
            <path class="cls-1" d="M706.19,465.54l29.3,85.88-14.46,40.87c-3.17.32-.93-3.13-.79-4.81,1.31-16.22,3.9-32.32,2.03-48.7l-36.6-48.63,16.05-23.38c-1.04-1.1-19.46,17.95-22.98,19.66-5.67,2.75-41.36,9.16-48.58,9.4l-103.86-22.62c-.98-3.74.9-2.69,2.05-3.68,1.74-1.5,10.77-8.5,11.98-8.85,5.36-1.54,44.57-6.54,49.9-6.28,10.28.51,28.02,14.36,38.65,15.25,19.11,1.6,49.77-5.72,70.48-6.1,1.82-.03,5.72.71,6.83,2.02Z"/>
            <path class="cls-1" d="M376.9,587.16c-1.21-2.07,6.07-43.36,7.63-47.3,1.5-3.77,5.99-7.5,8.94-10.38,1.43-1.39,11.44-10.15,12.15-10.51,4.35-2.18,16.43,10.41,21.67,11.64l20.7-12.12c1.45.28,20.28,19.13,21.07,20.77,1.84,3.79,7.35,37.51,7.4,42.66.02,1.93.2,3.8-.86,5.55l-47.03,35.17-5.85-1.62-45.83-33.86ZM428.09,618.03l36.79-74.6-18.23-18.29-19.33,10.71-20.27-10.45-18.73,17.78c13.38,22,22.5,51.63,36.19,72.79,1,1.55-.17,2.89,3.57,2.06ZM412.01,603.56l-24.11-48.28-4.12,27.33,28.23,20.94ZM466.74,556.89c-3.76-.81-2.59.48-3.6,2.07-7.81,12.16-13.96,29.79-20.52,42.98l26.62-19.37-2.49-25.68Z"/>
            <path class="cls-1" d="M600.37,228.54c-.18-4.09-4.74-6.15-5.84-9.62-2.76-8.67,21.55-38.45,17.14-50.81L590.7,0l39.48,174.68c-.22,2.71-21.63,43.73-24.7,48.55-.79,1.24-3.95,6.12-5.11,5.32Z"/>
            <path class="cls-1" d="M249.48,228.54c-6.34-19.51-20.86-36.92-25.83-57.05L262.33,0l-21.04,171.4c-.68,13.05,17.25,34.07,17.87,45.22.19,3.46-7.58,13.86-9.68,11.92Z"/>
            <path class="cls-1" d="M365.34,160.94l-14.45-6.44-2.98,19.75,31.1,28.57,11.29,32.15c1.3-1.71,4.66-3.5,4.98-5.54,1.01-6.52-6.37-27.21-7.22-35.66-1.14-11.31,1.22-21.98,1.88-33.19l4.38-15.72c-.71,3.56,1.32,7.28,1.3,10.46-.06,9.51-3.16,23.08-2.95,32.11.2,8.84,11.06,41.26,9.54,46.51l-62.59,49.32,49.62-47.45-14.19-30.62c-5.1-6.75-28.78-22.34-31.44-28.2-2.63-5.82,5.19-21.13,3.36-24.09l-29.51-13.25-6.81-52.72,44.22,17.73,10.48,56.3ZM347.64,109.46l-25.74-8.06,1.62,28.96,24.12-20.9ZM349.25,115.89c-2.09-2.41-19.93,18.32-22.49,20.11.02,1.87,25.99,13.38,27.32,12.06l-4.83-32.17Z"/>
            <path class="cls-1" d="M609.98,281.66l20.92,59.46-43.42,32.28c-.78-4.78-3.54-8.01-2.94-13.25,2.58-22.53,19.2-52.41,22.21-76.13l3.23-2.37Z"/>
            <path class="cls-1" d="M265.54,373.4l-41.65-33.3,21.55-58.43,22.98,75.25c1.72,5.88-1.82,10.95-2.89,16.48Z"/>
            <path class="cls-1" d="M463.53,233.37c4.88-27.39,21.83-40.53,41.54-57.44l-1.31-21.43-14.46,4.83,8.29-54.45,44.79-17.97-5.59,51.53-29.62,13.03,2.8,26.09c-1.13,3.29-26.04,21.4-30.37,27.62-4.6,6.62-7.61,17.41-12.08,25-1.23,2.1.3,4.04-4,3.18,13.18,16.42,31.24,28.39,45.06,44.27-1.72,2.71-3.53-.66-4.8-1.64-17.81-13.66-34.71-28.53-52.26-42.54,3.88-22.62,9.28-41.96,8.77-65.25-.12-5.36-4.07-11.54.81-16.94,1.75.06,5.77,31.93,5.76,34.61-.05,9.89-10.19,38.11-7.37,44.3.82,1.81,3.34,2.32,4.03,3.19ZM531.13,101.39l-25.72,8.85c8.4,5.67,15.87,16.45,25.72,18.51v-27.36ZM498.94,148.05c1.92,1.46,29-10.48,28.94-12.06l-21.7-20.11-7.23,32.17Z"/>
            <path class="cls-1" d="M209.16,587.53l2.44,56.32,33.04,41.78-35.31-21.81c-2.68-1.56-3.35-4.15-4.56-6.7-10.76-22.69-16.44-52.45-26.11-76.08l30.51,6.49Z"/>
            <polygon class="cls-1" points="674.37 581.04 647.09 661.97 608.39 685.63 641.48 645.5 643.96 587.62 674.37 581.04"/>
            <path class="cls-1" d="M534.33,366.96c-9.35-5.99-19.03-11.53-28.48-17.37-1.24-.77-2.74.53-2.07-2.73l53.09-41.06-22.54,61.16Z"/>
            <path class="cls-1" d="M349.25,349.24c-5.92.1-27.11,18.54-30.56,16.11l-22.54-61.15,51.53,41,1.56,4.05Z"/>
            <path class="cls-1" d="M461.92,313.85l-34.56,30.55c-4.95.13-29.97-25.07-34.65-30.55h69.21Z"/>
            <polygon class="cls-1" points="421.42 250.82 329.94 296.13 412.84 241.43 415.26 165.78 420.06 213.27 421.42 250.82"/>
            <path class="cls-1" d="M441.34,242.71l80.14,51.81-89.35-45.03,5.64-77.27c2.72,23.26,1.68,47.03,3.57,70.49Z"/>
            <polygon class="cls-1" points="563.31 387.89 536.36 367.8 560.92 313.86 563.31 387.89"/>
            <polygon class="cls-1" points="316.99 370.05 289.72 387.89 292.94 313.86 316.99 370.05"/>
            <path class="cls-1" d="M522.77,500.88c4.11,9.64,20.72,17.12,21.21,28.02.38,8.49-15.44,5.34-21.78,8.03l-18.43-33.15,19-2.9Z"/>
            <path class="cls-1" d="M349.26,503.78l-17.64,33-22.55-4.1c-4.69-5.38,18.31-29.42,22.53-31.35,5.54-2.54,11.51,3.45,17.66,2.45Z"/>
            <path class="cls-1" d="M547.22,204.41l4.73,30.44-27.24,8.18-6.43-30.57c-2.22,11.87-16.33,28.07-18.6,38.57-1.08,4.97,3.08,9.9,1.69,14.52-15.46-15.41,9.22-41.24,14.45-57.96l31.4-3.18ZM540.78,209.24l-19.31,1.62,6.46,24.12,12.85-25.73ZM548.8,231.69l-3.98-20.85-12.07,24.13,16.05-3.28Z"/>
            <path class="cls-1" d="M337.73,206.28c2.46,11.5,19.51,32.88,20.86,42.73.56,4.08-1.96,13.57-5.32,16.55-.88-5.22,1.61-9.31.46-14.91-2.27-10.97-14.61-26.49-17.37-38.18l-6.43,30.57-27.17-9.07,3.03-29.57,31.93,1.89ZM333.16,210.85l-20.92-1.61,12.9,24.12c4.19.36,2.67.21,3.14-2.43,1.23-6.86,1.33-13.78,4.88-20.08ZM323.5,236.58l-14.46-24.12-4.15,19.35,18.61,4.77Z"/>
            <path class="cls-1" d="M424.9,349.27c1.34,1.19-11.06,26.56-11.25,31.56-.21,5.79,8.12,10.88,7.24,16.71-12.19-13.33-25.78-27.45-31.4-45.04l35.4-3.22Z"/>
            <path class="cls-1" d="M463.49,352.54c3.18,4.7-25.59,42.09-32.13,46.61l9.62-16.85-12.85-33.03,35.37,3.26Z"/>
            <polygon class="cls-1" points="513.43 41.86 466.41 92.2 455.5 140.01 453.15 90.05 513.43 41.86"/>
            <polygon class="cls-1" points="400.43 88.83 399.14 111.84 395.95 131.96 387.67 92.76 336.38 38.64 400.43 88.83"/>
            <polygon class="cls-1" points="513.43 571.36 518.56 552.38 545.6 545.62 542.44 564.17 513.43 571.36"/>
            <path class="cls-1" d="M334.43,552.4c.92.92,4.65,17.45,4.38,20.57l-27.49-9.53-1.94-2.89-1.96-14.93,27.01,6.78Z"/>
            <path class="cls-1" d="M389.5,317.07c10.18,9.65,21.9,17.82,30.58,28.96l-30.58,3.24v-32.19Z"/>
            <path class="cls-1" d="M452.27,310.63h-49.09c-4.13,0-.87-8.43-.81-10.48.19-6.16-.12-12.34.02-18.48,2.26.18,2.83,7.25,3,9.05.53,5.55-.61,11.33,1,16.69,11.33-8.18,28.53-5.46,41.04-1.61l2.42-25.76,2.41,30.6Z"/>
            <polygon class="cls-1" points="463.53 347.65 432.95 346.02 463.53 317.07 463.53 347.65"/>
            <path class="cls-1" d="M360.52,498.93l-28.2-8-15.25-6.45c5.14-.3,15.28-5.45,19.73-4.53,4.62.96,19.41,14.96,23.71,18.98Z"/>
            <path class="cls-1" d="M535.95,484.48l-32.51,11.72-7.72,1.12c3.27-4.15,16.17-16.35,20.54-17.39,5.38-1.29,14.14,3.82,19.68,4.55Z"/>
            <path class="cls-1" d="M387.89,363.73c-3.02.71-3.83-1.69-5.64-3.2-12.67-10.56-27.22-22.16-37.57-34.32l2.97-5.15,40.25,42.66Z"/>
            <path class="cls-1" d="M506.97,320.29l2.87,7.27-1.08,1.62-43.61,34.55c12.73-13.3,24.89-27.14,37.3-40.74,1.43-1.56,1.46-3.44,4.52-2.7Z"/>
            <path class="cls-1" d="M685.65,381.46c-12,15.71-32.05,16.53-49.89,20.89l32.23-15.22,17.65-5.67Z"/>
            <path class="cls-1" d="M704.95,249.48c-1.99,16.92-25.66,14.72-38.61,19.29l38.61-19.29Z"/>
            <path class="cls-1" d="M186.68,267.19c.38,2.99-3.24,1.2-4.9.88-4.69-.91-28.06-6.93-29.61-9.03l-5.71-11.17,40.23,19.32Z"/>
            <path class="cls-1" d="M700.13,431.36c-8.35,15.69-29.84,7.97-45.06,11.23l45.06-11.23Z"/>
            <path class="cls-1" d="M317.06,241.43l-1.36,12.64c6.2,3.15,21.12,9.68,23.21,16.23,1.02,3.19,1.2,4.4-1.72,6.5-4.66-11.98-16.44-14.98-25.72-22.4-.42-.92.73-15.05,5.59-12.97Z"/>
            <path class="cls-1" d="M540.78,241.41l1.31,14.19-18.18,11.58-8.86,9.64c-1.23-12.51,14.46-18.19,23.9-22.75,2.44-3.86-5.37-13.81,1.83-12.66Z"/>
            <path class="cls-1" d="M606.79,403.97l17.67-16.91,8.05-5.61c-4.44,13.06-11.29,21.05-25.73,22.52Z"/>
            <path class="cls-1" d="M246.25,403.97c-13.76-2.53-21.74-10.98-25.74-24.13l25.74,24.13Z"/>
        </g>
    </g>

    <!-- Rotating rings (last, to be on top) -->
    <circle id="circle-cw" class="rotating-circle" cx="455.745" cy="455.745" r="420" stroke-dasharray="80 30"></circle>
    <circle id="circle-ccw" class="rotating-circle" cx="455.745" cy="455.745" r="455" stroke-dasharray="10 20 60 20" opacity="0.7"></circle>

</svg>